<svg width="20" height="32" viewBox="0 0 20 32" fill="none" xmlns="http://www.w3.org/2000/svg">
<path d="M17 0H3C1.34375 0 0 1.34375 0 3V29C0 30.6562 1.34375 32 3 32H17C18.6562 32 20 30.6562 20 29V3C20 1.34375 18.6562 0 17 0ZM10 30C8.89375 30 8 29.1063 8 28C8 26.8937 8.89375 26 10 26C11.1062 26 12 26.8937 12 28C12 29.1063 11.1062 30 10 30ZM17 23.25C17 23.6625 16.6625 24 16.25 24H3.75C3.3375 24 3 23.6625 3 23.25V3.75C3 3.3375 3.3375 3 3.75 3H16.25C16.6625 3 17 3.3375 17 3.75V23.25Z" fill="#CBCFD4"/>
</svg>