<svg width="14" height="12" viewBox="0 0 14 12" fill="none" xmlns="http://www.w3.org/2000/svg">
<path d="M6.52757 0.363116C6.68296 -0.0852364 7.31704 -0.0852354 7.47243 0.363117L8.67957 3.84611C8.74933 4.04739 8.93897 4.18237 9.152 4.18237H12.9862C13.4783 4.18237 13.6744 4.81857 13.2677 5.09562L10.2224 7.16984C10.0358 7.29697 9.95753 7.53343 10.0315 7.74682L11.2075 11.1402C11.3653 11.5952 10.8517 11.9882 10.4536 11.7171L7.28148 9.55647C7.11165 9.44079 6.88835 9.44079 6.71852 9.55647L3.54636 11.7171C3.14833 11.9882 2.63475 11.5952 2.79245 11.1402L3.96852 7.74682C4.04247 7.53343 3.96421 7.29697 3.77756 7.16984L0.732321 5.09562C0.325574 4.81857 0.521658 4.18237 1.0138 4.18237H4.848C5.06103 4.18237 5.25067 4.04739 5.32043 3.84611L6.52757 0.363116Z" fill="#FED500"/>
</svg>
