<svg width="36" height="30" viewBox="0 0 36 30" fill="none" xmlns="http://www.w3.org/2000/svg">
<path d="M35.2908 6.19079C34.5096 7.83599 31.0752 15.774 30.6072 16.5084C30.5532 16.5948 30.5028 16.6812 30.456 16.764C29.9988 17.5452 29.5164 18.1464 27.8532 18.1464H11.9808C12.312 19.158 13.0068 20.4036 14.4468 20.4036H28.1844C28.5912 20.4036 28.9188 20.7348 28.9188 21.138C28.9188 21.5448 28.5912 21.8724 28.1844 21.8724H14.4468C12.4092 21.8724 10.9188 20.2776 10.3644 17.8296C10.0584 16.4796 6.33961 4.03799 6.07321 3.06238C5.78881 2.44318 5.12281 1.99678 4.47842 1.99678H1.09442C0.687616 1.99678 0.360016 1.66558 0.360016 1.26238C0.360016 0.859185 0.691216 0.527985 1.09442 0.527985H4.47842C5.73841 0.527985 6.93001 0.596385 7.44481 1.79159C7.45921 1.82399 7.47001 1.85638 7.47721 1.88879C7.62481 2.42159 10.7064 13.3548 11.5848 16.674H27.8496C28.8036 16.674 28.8972 16.5084 29.1816 16.0224C29.2392 15.9252 29.2968 15.8244 29.3652 15.72C29.8008 15.036 33.2136 7.14479 33.9408 5.61119C34.2432 4.81919 34.1892 4.38719 34.1064 4.26479C34.0524 4.18559 33.876 4.13879 33.6348 4.13879C32.0436 4.16399 11.8404 4.13879 11.1384 4.13879C10.7316 4.13879 10.404 3.80759 10.404 3.40079C10.404 2.99399 10.7316 2.66638 11.1384 2.66638C11.3112 2.66638 32.0292 2.69158 33.6204 2.66638C34.5888 2.66638 35.0748 3.08039 35.316 3.42959C35.7552 4.07039 35.748 4.99919 35.2908 6.19079ZM14.0544 22.5996C15.948 22.5996 17.4924 24.1404 17.4924 26.0376C17.4924 27.9348 15.9516 29.472 14.0544 29.472C12.1608 29.472 10.62 27.9312 10.62 26.034C10.62 24.1368 12.1608 22.5996 14.0544 22.5996ZM14.0544 28.0608C15.1704 28.0608 16.0776 27.1536 16.0776 26.0376C16.0776 24.9216 15.1704 24.0144 14.0544 24.0144C12.9384 24.0144 12.0312 24.9216 12.0312 26.0376C12.0348 27.1536 12.942 28.0608 14.0544 28.0608Z" fill="#CBCFD4"/>
<path d="M28.0332 22.5996C29.9268 22.5996 31.4712 24.1404 31.4712 26.0376C31.4712 27.9348 29.9304 29.472 28.0332 29.472C26.136 29.472 24.5988 27.9312 24.5988 26.034C24.5988 24.1368 26.1396 22.5996 28.0332 22.5996ZM28.0332 28.0608C29.1492 28.0608 30.0564 27.1536 30.0564 26.0376C30.0564 24.9216 29.1492 24.0144 28.0332 24.0144C26.9172 24.0144 26.01 24.9216 26.01 26.0376C26.01 27.1536 26.9208 28.0608 28.0332 28.0608Z" fill="#CBCFD4"/>
</svg>
